<!-- Generated by IcoMoon.io -->
<svg version="1.1" xmlns="http://www.w3.org/2000/svg" width="32" height="32" viewBox="0 0 32 32">
<title>black-graduation-cap-tool-of-university-student-for-head</title>
<path d="M6.954 17.193v5.015c0 0 4.809-2.003 9.073-2.003s9.074 2.003 9.074 2.003v-5.085c0 0-4.588-2.427-9.145-2.427-4.555-0.002-9.002 2.497-9.002 2.497z"></path>
<path d="M30.196 15.999l1.804-0.97-1.804-0.999v-0.474c0 0 0.508-2.577-2.38-1.229-0.147 0.080-0.226 0.161-0.258 0.24l-11.909-6.605-15.649 8.956 5.909 2.685v-0.871c0 0 4.958-2.784 10.040-2.784s10.196 2.706 10.196 2.706v1.521l3.263-1.752c0 2.029 0 6.371 0 7.095h-1.086v2.522l1.444-0.998 1.603 0.998v-2.523h-1.174v-7.517zM29.408 13.117c0 0.061 0 0.229 0 0.475l-0.952-0.528c0.347-0.23 0.952-0.549 0.952 0.053zM29.086 15.9c-0.421 0-0.764-0.341-0.764-0.762s0.343-0.763 0.764-0.763c0.422 0 0.763 0.342 0.763 0.763s-0.341 0.762-0.763 0.762z"></path>
</svg>
