<!-- Generated by IcoMoon.io -->
<svg version="1.1" xmlns="http://www.w3.org/2000/svg" width="32" height="32" viewBox="0 0 32 32">
<title>diploma</title>
<path d="M20.754 0h-17.287v32h25.067v-24.221l-7.779-7.779zM21.067 1.821l5.646 5.646h-5.646v-5.646zM4.533 30.933v-29.867h15.467v7.467h7.467v22.4h-22.933z"></path>
<path d="M8.8 9.067h4.8c0.295 0 0.533-0.238 0.533-0.533s-0.238-0.533-0.533-0.533h-4.8c-0.295 0-0.533 0.238-0.533 0.533s0.238 0.533 0.533 0.533z"></path>
<path d="M8.8 13.333h2.667c0.295 0 0.533-0.238 0.533-0.533s-0.238-0.533-0.533-0.533h-2.667c-0.295 0-0.533 0.238-0.533 0.533s0.238 0.533 0.533 0.533z"></path>
<path d="M16.8 13.333h3.733c0.295 0 0.533-0.238 0.533-0.533s-0.238-0.533-0.533-0.533h-3.733c-0.295 0-0.533 0.238-0.533 0.533s0.238 0.533 0.533 0.533z"></path>
<path d="M13.755 12.427c-0.101 0.096-0.155 0.234-0.155 0.373s0.053 0.277 0.155 0.379c0.101 0.096 0.24 0.155 0.379 0.155s0.277-0.054 0.379-0.16c0.096-0.097 0.155-0.235 0.155-0.373s-0.059-0.278-0.155-0.379c-0.203-0.197-0.56-0.197-0.757 0.005z"></path>
<path d="M23.2 13.333c0.139 0 0.277-0.059 0.379-0.155 0.096-0.101 0.155-0.24 0.155-0.379s-0.059-0.278-0.155-0.379c-0.203-0.197-0.555-0.197-0.757 0-0.097 0.101-0.155 0.239-0.155 0.379s0.058 0.277 0.155 0.379c0.101 0.096 0.24 0.155 0.379 0.155z"></path>
<path d="M15.2 16.533h-3.733c-0.295 0-0.533 0.238-0.533 0.533s0.238 0.533 0.533 0.533h3.733c0.295 0 0.533-0.238 0.533-0.533s-0.238-0.533-0.533-0.533z"></path>
<path d="M8.8 17.6c0.139 0 0.277-0.059 0.379-0.155 0.101-0.101 0.155-0.24 0.155-0.379s-0.054-0.278-0.155-0.379c-0.203-0.197-0.555-0.197-0.757 0-0.101 0.101-0.155 0.234-0.155 0.379 0 0.139 0.058 0.277 0.155 0.379 0.101 0.096 0.24 0.155 0.379 0.155z"></path>
<path d="M10.477 21.422c-1.168 0.608-1.561 1.771-1.705 2.977-0.221-0.185-0.442-0.37-0.662-0.555-0.523-0.438-1.281 0.313-0.754 0.755 0.499 0.418 0.998 0.836 1.497 1.254 0.351 0.294 0.894 0.108 0.91-0.377 0.039-1.155 0.093-2.529 1.252-3.132 0.609-0.317 0.070-1.238-0.538-0.922z"></path>
<path d="M14.024 23.549c-0.739 0.171-1.579 1.111-2.099 0.057-0.303-0.615-1.224-0.076-0.921 0.538 0.276 0.559 0.8 0.951 1.423 1.030 0.317 0.040 0.603-0.005 0.9-0.121 0.218-0.085 1.033-0.698 1.209-0.382 0.335 0.599 1.257 0.062 0.921-0.538-0.286-0.513-0.866-0.716-1.434-0.584z"></path>
<path d="M24.931 18.407c-0.124-0.044-0.179-0.138-0.201-0.19s-0.050-0.158 0.007-0.277c0.259-0.545 0.15-1.173-0.276-1.6-0.427-0.426-1.055-0.535-1.599-0.276-0.121 0.057-0.226 0.029-0.278 0.007-0.053-0.022-0.146-0.077-0.19-0.201-0.202-0.569-0.723-0.936-1.326-0.936s-1.124 0.367-1.326 0.936c-0.044 0.124-0.138 0.179-0.19 0.201s-0.158 0.050-0.277-0.007c-0.545-0.258-1.172-0.15-1.6 0.276-0.427 0.427-0.535 1.055-0.276 1.599 0.057 0.12 0.029 0.226 0.007 0.278s-0.077 0.146-0.201 0.19c-0.569 0.202-0.936 0.723-0.936 1.326s0.367 1.124 0.936 1.326c0.124 0.044 0.179 0.138 0.201 0.19s0.050 0.158-0.007 0.277c-0.259 0.545-0.15 1.173 0.276 1.6 0.206 0.206 0.46 0.336 0.727 0.388v6.572l2.667-2.667 2.667 2.667v-6.572c0.268-0.052 0.522-0.181 0.727-0.388 0.427-0.427 0.535-1.055 0.276-1.599-0.057-0.12-0.029-0.226-0.007-0.278s0.077-0.146 0.201-0.19c0.569-0.202 0.936-0.723 0.936-1.326s-0.367-1.124-0.936-1.326zM21.067 25.913l-1.6 1.6v-4.138c0.005 0.001 0.010 0.001 0.014 0.002 0.027 0.005 0.052 0.012 0.069 0.019 0.026 0.011 0.063 0.030 0.098 0.062s0.070 0.077 0.092 0.139c0.202 0.569 0.723 0.936 1.326 0.936s1.124-0.367 1.326-0.936c0.022-0.062 0.057-0.107 0.092-0.139s0.072-0.051 0.098-0.062c0.017-0.007 0.042-0.014 0.069-0.019 0.004-0.001 0.009-0.002 0.014-0.002v4.137l-1.599-1.599zM24.573 20.055c-0.374 0.133-0.677 0.42-0.829 0.787s-0.142 0.785 0.029 1.145c0.093 0.196-0.015 0.336-0.067 0.387-0.042 0.043-0.15 0.119-0.299 0.091l-0.117-0.037c-0.049-0.022-0.1-0.034-0.15-0.049-0.037-0.012-0.074-0.028-0.111-0.037-0.052-0.012-0.106-0.015-0.159-0.021-0.043-0.005-0.085-0.014-0.129-0.015-0.052-0.001-0.103 0.007-0.154 0.012-0.044 0.004-0.089 0.003-0.133 0.012-0.094 0.018-0.187 0.045-0.277 0.082 0 0-0.001 0-0.001 0.001v0c-0.023 0.010-0.043 0.025-0.066 0.036-0.066 0.032-0.133 0.063-0.193 0.105-0.072 0.050-0.138 0.108-0.199 0.17-0.007 0.007-0.016 0.012-0.023 0.020-0.134 0.141-0.239 0.311-0.306 0.498-0.071 0.204-0.248 0.226-0.321 0.226s-0.249-0.022-0.322-0.227c-0.067-0.188-0.172-0.357-0.306-0.498-0.005-0.006-0.012-0.010-0.018-0.015-0.063-0.064-0.13-0.123-0.204-0.174-0.058-0.040-0.122-0.070-0.186-0.101-0.025-0.012-0.047-0.029-0.074-0.040v0c-0.001 0-0.001-0.001-0.001-0.001-0.011-0.005-0.023-0.006-0.034-0.010-0.078-0.030-0.157-0.055-0.237-0.070-0.065-0.013-0.13-0.015-0.195-0.019-0.024-0.001-0.048-0.007-0.072-0.007-0.002 0-0.003 0.001-0.004 0.001-0.199-0.001-0.393 0.038-0.558 0.119l-0.121 0.038c-0.153 0.035-0.265-0.044-0.308-0.089-0.052-0.051-0.161-0.191-0.067-0.388 0.171-0.359 0.181-0.776 0.029-1.144-0.152-0.367-0.454-0.654-0.829-0.787-0.204-0.071-0.226-0.248-0.226-0.321s0.022-0.249 0.227-0.322c0.374-0.133 0.677-0.42 0.829-0.787s0.142-0.785-0.029-1.145c-0.093-0.196 0.015-0.336 0.067-0.387s0.19-0.159 0.388-0.067c0.359 0.171 0.776 0.182 1.144 0.029 0.367-0.152 0.654-0.454 0.787-0.829 0.071-0.204 0.248-0.226 0.321-0.226s0.249 0.022 0.322 0.227c0.133 0.374 0.42 0.677 0.787 0.829 0.367 0.154 0.785 0.142 1.145-0.029 0.195-0.094 0.337 0.015 0.387 0.067 0.052 0.051 0.161 0.191 0.067 0.388-0.171 0.359-0.181 0.776-0.029 1.144 0.152 0.367 0.454 0.654 0.829 0.787 0.204 0.071 0.226 0.248 0.226 0.321s-0.022 0.249-0.227 0.322z"></path>
</svg>
