<!-- Generated by IcoMoon.io -->
<svg version="1.1" xmlns="http://www.w3.org/2000/svg" width="32" height="32" viewBox="0 0 32 32">
<title>iconmonstr-email-14</title>
<path d="M16 2.667c7.352 0 13.333 5.981 13.333 13.333s-5.981 13.333-13.333 13.333-13.333-5.981-13.333-13.333 5.981-13.333 13.333-13.333zM16 0c-8.836 0-16 7.164-16 16s7.164 16 16 16 16-7.164 16-16-7.164-16-16-16zM16.028 23.765c-5.209 0-8.028-3.251-8.028-7.448 0-4.484 3.175-8.083 8.851-8.083 4.143 0 7.149 2.692 7.149 6.401 0 5.808-6.887 7.341-6.541 4.028-0.472 0.74-1.236 1.569-2.701 1.569-1.676 0-2.72-1.227-2.72-3.204 0-2.963 1.948-5.467 4.253-5.467 1.105 0 1.865 0.584 2.184 1.48l0.309-1.088h1.559c-0.163 0.555-1.548 5.685-1.548 5.685-0.431 1.777 0.9 1.808 2.083 0.864 2.22-1.72 2.333-6.219-0.665-8.095-3.215-1.927-10.529-0.735-10.529 5.796 0 3.741 2.635 6.255 6.552 6.255 2.292 0 3.695-0.62 4.864-1.299l0.784 1.132c-1.141 0.643-2.975 1.472-5.855 1.472zM14.465 14.228c-0.476 0.893-0.784 2.051-0.784 2.949 0 2.407 2.348 2.421 3.501 0.16 0.475-0.929 0.781-2.115 0.781-3.020 0-1.944-2.331-2.289-3.499-0.089z"></path>
</svg>
