<!-- Generated by IcoMoon.io -->
<svg version="1.1" xmlns="http://www.w3.org/2000/svg" width="32" height="32" viewBox="0 0 32 32">
<title>iconmonstr-linkedin-4</title>
<path d="M16 0c-8.836 0-16 7.164-16 16s7.164 16 16 16 16-7.164 16-16-7.164-16-16-16zM13.333 21.333h-2.667v-8h2.667v8zM12 12.145c-0.809 0-1.467-0.661-1.467-1.479 0-0.816 0.656-1.479 1.467-1.479s1.467 0.663 1.467 1.479c0 0.817-0.657 1.479-1.467 1.479zM22.667 21.333h-2.664v-3.815c0-2.508-2.669-2.296-2.669 0v3.815h-2.667v-8h2.667v1.457c1.163-2.155 5.333-2.315 5.333 2.064v4.479z"></path>
</svg>
