<!-- Generated by IcoMoon.io -->
<svg version="1.1" xmlns="http://www.w3.org/2000/svg" width="32" height="32" viewBox="0 0 32 32">
<title>iconmonstr-user-15</title>
<path d="M31.993 32h-2.66c0-4.139 0.159-4.733-2.348-5.315-3.836-0.885-7.459-1.721-8.779-4.611-0.481-1.055-0.801-2.793 0.413-5.085 2.723-5.143 3.405-9.553 1.871-12.101-1.788-2.972-7.217-2.988-9.021 0.045-1.539 2.583-0.847 6.969 1.899 12.033 1.24 2.283 0.929 4.027 0.451 5.087-1.309 2.904-4.9 3.732-8.7 4.608-2.619 0.605-2.452 1.16-2.452 5.339h-2.66l-0.007-1.655c0-3.36 0.265-5.3 4.237-6.217 4.487-1.036 8.917-1.964 6.787-5.891-6.311-11.639-1.8-18.237 4.976-18.237 6.644 0 11.268 6.355 4.976 18.237-2.068 3.904 2.2 4.832 6.787 5.891 3.972 0.917 4.237 2.857 4.237 6.217l-0.007 1.655zM14.023 24l1.213 2.667h1.552l1.227-2.667h-3.992zM18.016 32l-0.939-4h-2.153l-0.939 4h4.031z"></path>
</svg>
