<!-- Generated by IcoMoon.io -->
<svg version="1.1" xmlns="http://www.w3.org/2000/svg" width="32" height="32" viewBox="0 0 32 32">
<title>iconmonstr-id-card-8</title>
<path d="M29.333 6.667v18.667h-26.667v-18.667h26.667zM32 4h-32v24h32v-24zM18.667 22.129v0.537h-13.333v-0.556c-0.005-1.483 0.059-2.329 1.765-2.724 1.871-0.432 3.716-0.817 2.829-2.455-2.631-4.849-0.751-7.599 2.072-7.599 2.769 0 4.695 2.647 2.075 7.599-0.863 1.627 0.917 2.013 2.828 2.455 1.712 0.396 1.771 1.248 1.764 2.743zM26.667 9.333h-5.333v2.667h5.333v-2.667zM26.667 14.667h-5.333v2.667h5.333v-2.667zM26.667 20h-5.333v2.667h5.333v-2.667z"></path>
</svg>
