<!-- Generated by IcoMoon.io -->
<svg version="1.1" xmlns="http://www.w3.org/2000/svg" width="32" height="32" viewBox="0 0 32 32">
<title>superman-flying</title>
<path d="M26.977 12.079c0 1.214-0.984 2.199-2.199 2.199s-2.199-0.984-2.199-2.199c0-1.214 0.984-2.199 2.199-2.199s2.199 0.984 2.199 2.199z"></path>
<path d="M30.689 13.935c-2.374 0.608-4.767 1.13-7.176 1.571-0.010-0.149-0.033-0.303-0.076-0.462-0.483-1.741-3.12-2.301-3.759-2.554 0.411-0.447 0.822-0.894 1.233-1.341 0.92-0.999-0.568-2.494-1.491-1.491-0.753 0.82-1.508 1.64-2.262 2.459-0.43 0.467-0.423 1.345 0.214 1.655 0.353 0.172 0.715 0.33 1.079 0.482-2.41 0.719-3.545 0.813-3.599 0.817-4.743 0.41-8.919 0.779-13.662 1.189-1.68 0.145-1.539 2.76 0.155 2.614 2.816-0.242 5.633-0.488 8.449-0.73-2.582 0.648-5.164 1.296-7.745 1.942-1.647 0.413-0.949 2.954 0.7 2.541 3.313-0.83 16.071-3.707 18.489-4.608 3.369-0.524 6.706-1.204 10.010-2.052 1.317-0.338 0.758-2.37-0.56-2.032z"></path>
<path d="M16.468 14.001c-0.168-0.211-0.284-0.465-0.337-0.745-0.022-0.117-0.024-0.237-0.024-0.355l-0.026-0.036-15.612-2.46 1.894 4.983 12.422-1.074c0.034-0.003 0.576-0.051 1.682-0.313z"></path>
</svg>
